<svg xmlns="http://www.w3.org/2000/svg" viewBox="0 0 64 64" width="64" height="64">
  <!-- Book body left page -->
  <path d="M8 14 Q8 12 10 12 L30 12 L30 52 L10 52 Q8 52 8 50 Z" fill="#1565C0"/>
  <!-- Book body right page -->
  <path d="M34 12 L54 12 Q56 12 56 14 L56 50 Q56 52 54 52 L34 52 Z" fill="#1976D2"/>
  <!-- Spine -->
  <rect x="29" y="12" width="6" height="40" rx="1" fill="#0D47A1"/>
  <!-- Left page lines -->
  <line x1="14" y1="22" x2="26" y2="22" stroke="rgba(255,255,255,0.5)" stroke-width="2" stroke-linecap="round"/>
  <line x1="14" y1="28" x2="26" y2="28" stroke="rgba(255,255,255,0.5)" stroke-width="2" stroke-linecap="round"/>
  <line x1="14" y1="34" x2="26" y2="34" stroke="rgba(255,255,255,0.5)" stroke-width="2" stroke-linecap="round"/>
  <line x1="14" y1="40" x2="26" y2="40" stroke="rgba(255,255,255,0.5)" stroke-width="2" stroke-linecap="round"/>
  <!-- Right page lines -->
  <line x1="38" y1="22" x2="50" y2="22" stroke="rgba(255,255,255,0.5)" stroke-width="2" stroke-linecap="round"/>
  <line x1="38" y1="28" x2="50" y2="28" stroke="rgba(255,255,255,0.5)" stroke-width="2" stroke-linecap="round"/>
  <line x1="38" y1="34" x2="50" y2="34" stroke="rgba(255,255,255,0.5)" stroke-width="2" stroke-linecap="round"/>
  <line x1="38" y1="40" x2="50" y2="40" stroke="rgba(255,255,255,0.5)" stroke-width="2" stroke-linecap="round"/>
  <!-- Shine -->
  <path d="M10 14 Q16 12 22 14" stroke="rgba(255,255,255,0.25)" stroke-width="1.5" fill="none" stroke-linecap="round"/>
</svg>
